<svg width="74" height="65" viewBox="0 0 74 65" fill="none" xmlns="http://www.w3.org/2000/svg">
<g clip-path="url(#clip0_2_6)">
<g filter="url(#filter0_di_2_6)">
<path d="M2.688 55H1.92L21.056 10.2L21.76 9.88L37.888 55H32.448L27.456 40.92H8.768L2.688 55ZM19.072 17.112L9.024 40.28H27.264L19.072 17.112ZM51.2985 55.256C43.3198 55.256 37.4105 52.9947 33.5705 48.472C32.2052 46.8507 31.0958 44.696 30.2425 42.008C29.3892 39.32 28.9625 36.056 28.9625 32.216C28.9625 28.376 29.5812 24.9413 30.8185 21.912C32.0985 18.84 33.8265 16.472 36.0025 14.808C40.2265 11.6933 45.3252 10.136 51.2985 10.136C53.2185 10.136 55.0958 10.2853 56.9305 10.584C58.7652 10.84 60.1305 11.1173 61.0265 11.416L62.3705 11.864L62.1785 12.504C58.8505 11.352 55.2238 10.776 51.2985 10.776C46.7758 10.776 42.9998 12.248 39.9705 15.192C37.6665 17.368 36.0452 20.568 35.1065 24.792C34.5518 27.1813 34.2745 30.104 34.2745 33.56C34.2745 37.016 34.7652 40.216 35.7465 43.16C36.7278 46.0613 37.8372 48.216 39.0745 49.624C40.3545 51.032 41.8905 52.1627 43.6825 53.016C45.4745 53.8267 46.9038 54.296 47.9705 54.424C49.0372 54.552 50.2958 54.616 51.7465 54.616C53.2398 54.616 55.2238 54.4453 57.6985 54.104V40.92H49.9545V40.28H65.7625V40.92H63.0105V53.528C59.7678 54.68 55.8638 55.256 51.2985 55.256Z" fill="white"/>
</g>
</g>
<defs>
<filter id="filter0_di_2_6" x="-2.08" y="9.88" width="71.8425" height="53.376" filterUnits="userSpaceOnUse" color-interpolation-filters="sRGB">
<feFlood flood-opacity="0" result="BackgroundImageFix"/>
<feColorMatrix in="SourceAlpha" type="matrix" values="0 0 0 0 0 0 0 0 0 0 0 0 0 0 0 0 0 0 127 0" result="hardAlpha"/>
<feOffset dy="4"/>
<feGaussianBlur stdDeviation="2"/>
<feComposite in2="hardAlpha" operator="out"/>
<feColorMatrix type="matrix" values="0 0 0 0 0 0 0 0 0 0 0 0 0 0 0 0 0 0 0.1 0"/>
<feBlend mode="normal" in2="BackgroundImageFix" result="effect1_dropShadow_2_6"/>
<feBlend mode="normal" in="SourceGraphic" in2="effect1_dropShadow_2_6" result="shape"/>
<feColorMatrix in="SourceAlpha" type="matrix" values="0 0 0 0 0 0 0 0 0 0 0 0 0 0 0 0 0 0 127 0" result="hardAlpha"/>
<feOffset dy="4"/>
<feGaussianBlur stdDeviation="2"/>
<feComposite in2="hardAlpha" operator="arithmetic" k2="-1" k3="1"/>
<feColorMatrix type="matrix" values="0 0 0 0 0 0 0 0 0 0 0 0 0 0 0 0 0 0 0.25 0"/>
<feBlend mode="normal" in2="shape" result="effect2_innerShadow_2_6"/>
</filter>
<clipPath id="clip0_2_6">
<rect width="74" height="65" fill="white"/>
</clipPath>
</defs>
</svg>
